<svg xmlns="http://www.w3.org/2000/svg" xmlns:xlink="http://www.w3.org/1999/xlink" version="1.1" x="0px" y="0px" viewBox="0 0 90 90" enable-background="new 0 0 90 90" xml:space="preserve"><path fill="none" d="M43.5,54.2c-0.3,0.1-0.7,0.2-1.1,0.3C42.2,54.7,42,54.9,42,55c-0.1,0.1-0.1,0.2-0.1,0.4c0,0.1,0,0.2,0.1,0.4  c0,0.1,0.1,0.1,0.1,0.2c0.3,0.4,0.9,0.8,1.7,1.1c0,0,0.1,0,0.1,0c0.1,0.1,0.3,0.1,0.4,0.2c0.6,0.2,1.2,0.3,2,0.4  c0.6,0.1,1.2,0.1,1.8,0.1c0.2,0,0.5,0,0.7,0c0,0,0.1,0,0.1,0c0.8,0,1.5-0.1,2.2-0.3c0.1,0,0.1,0,0.2,0c0.1,0,0.2-0.1,0.3-0.1  c0.1,0,0.2-0.1,0.4-0.1c1.1-0.4,1.8-0.9,2.2-1.3c0,0,0,0,0.1-0.1c0.2-0.2,0.2-0.4,0.2-0.5c0-0.1-0.1-0.3-0.2-0.5  c-0.1-0.1-0.2-0.2-0.3-0.3c-0.1-0.1-0.3-0.3-0.5-0.4c-0.4-0.2-0.8-0.4-1.3-0.6c-0.1,0-0.3,0-0.4,0c-0.1,0-0.2,0-0.3,0  c-0.2,0-0.3,0-0.5,0c-0.4,0-0.7,0-1.1,0c-0.3,0-0.6,0-0.8-0.1c-0.5-0.1-0.9-0.1-1.4-0.2c-0.4-0.1-0.7-0.2-1-0.3  c-0.5,0.1-1,0.1-1.4,0.2C44.7,53.6,44.1,53.9,43.5,54.2z"></path><path fill="none" d="M53,45.9c-0.6-0.1-1.3-0.1-2-0.1c-2.1,0-3.7,0.4-4.7,0.9c-0.1,0-0.1,0.1-0.2,0.1c0.9,0.8,1.4,1.8,1.4,2.9  c0,0.1,0,0.2,0,0.3c0,0,0,0.1,0,0.1c0,0,0,0,0,0.1c0.1,0,0.3,0.1,0.4,0.1c0,0,0.1,0,0.1,0c0.8,0.2,1.8,0.3,2.9,0.3  c0.1,0,0.1,0,0.2,0c0.4,0,0.7,0,1.1,0c0.1,0,0.3,0,0.4,0c3-0.3,4.7-1.5,4.8-2.3c0,0,0-0.1,0-0.1C57.4,47.5,55.9,46.3,53,45.9z"></path><path fill="none" d="M48.9,63.5c-0.3-0.2-0.6-0.3-0.8-0.5c-0.1,0-0.1-0.1-0.2-0.1c-0.9-0.7-1.5-1.4-1.8-2.3  c-0.7-0.1-1.4-0.2-2.1-0.4c-1.7,0.1-3,0.4-3.9,0.9c-0.1,0-0.1,0.1-0.2,0.1c-0.3,0.2-0.6,0.3-0.8,0.5c-0.3,0.2-0.5,0.5-0.6,0.7  c0,0.1-0.1,0.2-0.1,0.3c0,0.2,0.1,0.4,0.4,0.7c0,0,0,0,0,0c0.3,0.3,0.7,0.6,1.2,0.8c0.8,0.4,1.8,0.7,3.1,0.8  c0.5,0.1,1.1,0.1,1.7,0.1c0,0,0,0,0,0c0.2,0,0.4,0,0.6,0c0.9,0,1.8-0.2,2.5-0.3c0.5-0.1,0.9-0.2,1.3-0.4c0.1,0,0.1,0,0.2-0.1  c0.2-0.1,0.4-0.2,0.6-0.3c-0.3-0.1-0.5-0.2-0.7-0.3C49,63.6,49,63.5,48.9,63.5z"></path><path fill="none" d="M52.2,61.6c0.5,0.1,1.1,0.2,1.8,0.3c0.4,0,0.8,0.1,1.2,0.1c0.7,0,1.3,0,1.9-0.1c1.9-0.3,3.3-0.9,4-1.5  c0.2-0.2,0.3-0.3,0.4-0.4c0.1-0.1,0.1-0.3,0.1-0.4c0-0.2-0.1-0.4-0.3-0.6c-0.1-0.1-0.2-0.2-0.3-0.3c-0.7-0.6-2-1.2-3.9-1.4  c-0.2,0.4-0.5,0.8-0.9,1.1c-0.2,0.1-0.3,0.3-0.5,0.4c-0.3,0.2-0.5,0.4-0.8,0.5c-0.2,0.1-0.3,0.2-0.5,0.3c-0.4,0.2-0.8,0.4-1.3,0.5  c-0.5,0.2-1,0.3-1.5,0.4c-0.5,0.1-1.1,0.2-1.7,0.3c0.5,0.3,1.3,0.7,2.3,0.9C52.1,61.6,52.1,61.6,52.2,61.6z"></path><path fill="none" d="M26.5,55.7c0,0.1-0.1,0.2-0.1,0.2c0,0.2,0.1,0.4,0.3,0.6c0.1,0.1,0.3,0.3,0.5,0.4c0.1,0.1,0.3,0.2,0.5,0.3  c1.1,0.6,2.8,1.1,5.1,1.1c0,0,0,0,0,0c0,0,0.1,0,0.1,0c0.1,0,0.2,0,0.3,0c0.1,0,0.3,0,0.4,0c0.9,0,1.6-0.2,2.3-0.3  c0.1,0,0.2,0,0.2-0.1c0.4-0.1,0.8-0.3,1.2-0.4c0,0,0,0,0.1,0c0.7-0.3,1.1-0.6,1.4-1c0.1-0.1,0.2-0.2,0.2-0.3c0,0,0,0,0,0  c-0.1-0.3-0.1-0.6-0.1-0.9c-0.1-0.1-0.2-0.2-0.4-0.3c-0.1,0-0.2,0-0.3,0c0,0-0.1,0-0.1,0c-0.3,0-0.6,0-0.9,0c-0.2,0-0.4,0-0.6,0  c-0.5,0-1-0.1-1.4-0.2c-1.4-0.3-2.6-0.7-3.6-1.2C28.6,53.8,26.8,54.9,26.5,55.7z"></path><path fill="none" d="M41.8,47.7c-1-0.3-2.2-0.5-3.6-0.5c-0.2,0-0.3,0-0.5,0c0,0-0.1,0-0.1,0c-2.3,0.1-4,0.7-4.9,1.3  c-0.6,0.4-0.9,0.8-0.9,1.1c0,0.2,0.1,0.4,0.3,0.6c0.1,0.1,0.2,0.2,0.3,0.3c0.3,0.3,0.7,0.5,1.3,0.7c0.6,0.3,1.4,0.5,2.4,0.6  c0.2,0,0.4,0.1,0.6,0.1c0.5,0,0.9,0.1,1.5,0.1c0.4,0,0.7,0,1.1,0c0,0,0.1,0,0.1,0c0.1,0,0.2,0,0.4,0c0.5-0.1,1-0.1,1.4-0.2  c0.8-0.2,1.5-0.4,2-0.7c0.4-0.2,0.6-0.4,0.9-0.6c0.4-0.3,0.6-0.6,0.6-0.9c0-0.1,0-0.2-0.1-0.3C44.2,48.8,43.3,48.2,41.8,47.7z"></path><path fill="none" d="M31.1,17.5c0.3,0.2,0.7,0.4,1.1,0.6c3.2,1.6,7.8,2.6,12.5,2.6s9.3-0.9,12.5-2.6c0.4-0.2,0.7-0.4,1.1-0.6  c1.9-1.2,3-2.5,3-3.7c0-0.5-0.2-1.1-0.6-1.6c-0.7-0.9-1.9-1.8-3.5-2.6C53.9,7.9,49.4,7,44.7,7s-9.3,0.9-12.5,2.6  c-1.6,0.8-2.8,1.7-3.5,2.6c-0.4,0.6-0.6,1.1-0.6,1.6C28.1,15,29.2,16.4,31.1,17.5z"></path><path fill="none" d="M44.7,36.7c12.4,0,22.9-4.8,23.1-10.6v-0.6c0-1.7-1.3-3.5-3.6-5.1c-3.8,3.8-10.9,6.2-19.5,6.2  c-8.5,0-15.7-2.4-19.5-6.2c-2.3,1.6-3.6,3.5-3.6,5.2v0.5C21.8,31.9,32.3,36.7,44.7,36.7z"></path><path fill="none" d="M22.7,61.7c0,0.2,0.1,0.4,0.3,0.6c0.7,0.8,2.8,1.9,6.1,1.9c1.4,0,2.5-0.2,3.5-0.5c0.5-0.1,0.9-0.3,1.3-0.5  c0.8-0.4,1.3-0.8,1.5-1.2c0.1-0.1,0.1-0.2,0.1-0.3c0-0.2-0.1-0.4-0.3-0.6c-0.7,0.1-1.5,0.2-2.4,0.2c-2,0-3.8-0.3-5.2-0.9  c-0.1-0.1-0.3-0.1-0.4-0.2c0,0-0.1,0-0.1,0c-0.2-0.1-0.5-0.2-0.7-0.3c-0.1-0.1-0.3-0.2-0.4-0.3c0,0,0,0-0.1,0  c-0.5,0.1-0.9,0.3-1.3,0.4C23.4,60.6,22.7,61.3,22.7,61.7z"></path><path fill="none" d="M61.9,55.4c-0.1,0-0.2,0.1-0.3,0.1c0.9,0.5,1.5,1,2,1.7c0,0,0,0.1,0.1,0.1c0.4-0.3,0.6-0.6,0.6-0.9  c0-0.4-0.5-0.9-1.3-1.4C62.6,55.2,62.2,55.3,61.9,55.4z"></path><path fill="none" d="M22.9,55.7c0-0.5,0.1-1,0.3-1.5c-0.8-0.6-1.4-1.4-1.7-2.2v6.5c0.5-0.4,1.1-0.8,1.9-1.1  C23.1,56.9,22.9,56.3,22.9,55.7z"></path><path fill="none" d="M60.3,48.7c-0.1,0.9-0.6,1.7-1.3,2.4c-0.7,0.6-1.6,1.2-2.6,1.6c0.2,0.2,0.3,0.3,0.4,0.5c0.2,0,0.3,0,0.5,0  c2.7,0,4.5-0.7,5.5-1.4c0.5-0.4,0.8-0.8,0.8-1.1C63.5,50.2,62.4,49.2,60.3,48.7z"></path><path fill="none" d="M24.3,50.9c0,0.3,0.3,0.8,1,1.2c0.2,0.1,0.4,0.2,0.6,0.3c0.9-0.6,2-1.1,3.3-1.4c-0.1-0.1-0.1-0.3-0.1-0.4  c-0.1-0.3-0.1-0.6-0.1-0.9c0-0.4,0.1-0.8,0.2-1.2C26,48.8,24.3,50.1,24.3,50.9z"></path><path fill="none" d="M61.9,72c1.8-0.5,2.7-1.4,2.7-1.9c0-0.5-1-1.4-2.8-2c-0.2,0.2-0.4,0.4-0.7,0.5c0.1,0.3,0.1,0.6,0.1,1  c0,0.6-0.1,1.1-0.4,1.7C61.3,71.5,61.6,71.7,61.9,72z"></path><path fill="none" d="M64.3,62.4c0-0.2-0.2-0.6-0.6-0.9c-0.8,1.1-2.2,2-4,2.6c-1,0.3-2,0.5-3.2,0.6c0.4,0,0.9,0.1,1.4,0.1  c0.8,0,1.6-0.1,2.3-0.2C62.9,64.2,64.3,63.1,64.3,62.4z"></path><path fill="none" d="M67.8,32.3c-4.3,4.4-12.9,7.3-23.1,7.3c-10.2,0-18.8-2.9-23.1-7.3v17.4c0.9-2.5,4.5-4.2,9.1-4.2  c0.5,0,1,0,1.5,0.1c1.6-0.8,3.7-1.2,6.1-1.2c1.9,0,3.7,0.3,5.1,0.8c1.6-1.4,4.4-2.3,7.7-2.3c3.5,0,6.5,1,8.1,2.7  c4.3,0.5,7.4,2.6,7.4,5.3c0,0.9-0.4,1.8-1,2.5c1.1,0.9,1.7,2,1.7,3.2c0,1.1-0.5,2.1-1.4,2.9c1,0.9,1.5,1.9,1.5,3c0,0.2,0,0.3,0,0.4  c0.2,0.1,0.4,0.3,0.6,0.4V32.3z"></path><path fill="none" d="M67.4,71.2c-0.5,1.5-2,2.7-4,3.4c0,0.1,0,0.2,0,0.3c0,3.1-4,5.4-9.3,5.4c-1.1,0-2.2-0.1-3.1-0.3  c-0.9,0.2-1.9,0.3-3,0.3c-1.6,0.9-3.9,1.4-6.4,1.4c-4.4,0-7.9-1.6-8.9-3.9c-1,0.2-2.1,0.3-3.3,0.3c-2,0-3.8-0.3-5.2-0.9  c3.7,3.2,11.2,5.7,20.6,5.7c13.5,0,23-5.2,23.1-10c0,0,0-0.1,0-0.1c0,0,0-0.1,0-0.1C67.8,72.3,67.6,71.8,67.4,71.2z"></path><path fill="none" d="M30.2,75.3C30.2,75.2,30.2,75.2,30.2,75.3c-2-1-3.2-2.3-3.4-3.9c0-0.1,0-0.2,0-0.3c0-0.1,0-0.3,0-0.4  c-2.6,0.5-3.9,1.6-3.9,2.2c0,0.8,2.2,2.4,6.3,2.4C29.6,75.3,29.9,75.3,30.2,75.3z"></path><path fill="none" d="M56.3,77.2c2.3-0.4,3.6-1.2,4-1.9c0.1-0.1,0.1-0.3,0.1-0.4c0-0.4-0.6-1.1-1.7-1.6c-0.5,0.3-1.1,0.6-1.7,0.8  c0.1,0.3,0.1,0.5,0.1,0.8c0,0.1,0,0.3,0,0.4C57,76,56.7,76.7,56.3,77.2z"></path><path fill="none" d="M44.3,68.4c0.4-0.1,0.8-0.3,1.1-0.5c-0.2,0-0.4,0-0.7,0c-0.3,0-0.6,0-0.9,0c-0.2,0-0.5,0-0.7-0.1  c-0.4,0-0.7-0.1-1.1-0.1c-1.3-0.2-2.5-0.6-3.4-1.1c-0.5-0.3-1-0.6-1.4-0.9c-0.1,0-0.1-0.1-0.2-0.1c-0.2-0.2-0.4-0.4-0.6-0.6  c-0.3,0.2-0.6,0.4-0.9,0.6c-0.3,0.2-0.7,0.3-1,0.5c-0.1,0-0.1,0.1-0.2,0.1c-0.1,0.1-0.1,0.2-0.1,0.3c0,0.3,0.3,0.7,0.8,1.1  c0.6,0.4,1.5,0.8,2.7,1.1c0.4,0.1,0.8,0.1,1.2,0.2c0.5,0.1,1,0.1,1.6,0.1c0,0,0,0,0,0c0.8,0,1.6-0.1,2.3-0.2  C43.4,68.7,43.9,68.6,44.3,68.4z"></path><path fill="none" d="M35.3,73.5c0.3,0,0.5,0,0.8,0c0.6,0,1.1,0,1.6-0.1c0.3,0,0.5-0.1,0.8-0.1c0.2,0,0.3-0.1,0.4-0.1  c0.3-0.5,0.6-0.9,1.1-1.3c-0.6,0-1.1-0.1-1.7-0.1c-0.4-0.1-0.8-0.1-1.2-0.2c-0.2,0-0.5-0.1-0.7-0.2c-0.7-0.2-1.3-0.4-1.9-0.7  c-0.1-0.1-0.2-0.1-0.3-0.2c-0.8-0.4-1.5-0.9-2-1.4c-0.9,0.3-1.6,0.7-2,1.1c-0.1,0.1-0.2,0.1-0.2,0.2c0,0,0,0-0.1,0.1  c-0.2,0.2-0.2,0.4-0.2,0.5c0,0.7,1.4,1.8,4.1,2.3C34.3,73.4,34.8,73.4,35.3,73.5z"></path><path fill="none" d="M38.7,76.2c-0.8,0.1-1.6,0.2-2.4,0.2c-0.3,0.2-0.6,0.4-0.9,0.5c0.7,0.8,2.6,1.8,5.7,1.9  C40,78.1,39.1,77.2,38.7,76.2z"></path><path fill="none" d="M45.6,77.2c0.5,0.1,1,0.1,1.6,0.2c0.2,0,0.4,0,0.6,0c1.1,0,2.1-0.1,3-0.3c0.1,0,0.1,0,0.2,0  c2.1-0.5,3.2-1.5,3.2-2.1c0,0,0,0,0-0.1c0,0,0-0.1,0-0.1c-0.1,0-0.1,0-0.2,0c-0.6,0.1-1.3,0.1-1.9,0.1c-0.5,0-1,0-1.5-0.1  c-0.9-0.1-1.8-0.2-2.5-0.4c-1-0.3-2-0.7-2.7-1.1c-0.1-0.1-0.3-0.2-0.4-0.3c-0.1,0-0.1-0.1-0.2-0.1c-1.1,0.3-1.9,0.7-2.4,1.1  c-0.5,0.4-0.7,0.7-0.7,1c0,0.1,0.1,0.3,0.2,0.5C42.1,76.1,43.4,76.9,45.6,77.2z"></path><path fill="none" d="M55.2,71.6c1.5-0.4,2.5-1,2.9-1.5c0.1-0.1,0.1-0.1,0.1-0.2c0.1-0.1,0.1-0.2,0.1-0.3c0-0.5-0.9-1.4-2.7-1.9  c-0.3,0-0.6-0.1-0.9-0.2c-0.3-0.1-0.7-0.1-1-0.2c-0.5-0.1-1.1-0.1-1.7-0.1c-0.3,0-0.7,0-1,0c-0.5,0-0.9,0.1-1.3,0.1  c-0.2,0.8-0.6,1.5-1.3,2.1c-0.1,0.1-0.1,0.1-0.2,0.2c-0.5,0.4-1.1,0.8-1.7,1.1c0.2,0.2,0.5,0.3,0.8,0.5c0.6,0.3,1.3,0.5,2.1,0.6  c0.7,0.1,1.6,0.2,2.5,0.2c0.8,0,1.5-0.1,2.2-0.2C54.5,71.8,54.9,71.7,55.2,71.6z"></path><path d="M73.7,25.6c0-4-2.5-7.5-6.7-10.3c0.1-0.5,0.1-1,0.1-1.5c0-7.2-9.7-12.7-22.5-12.7S22.2,6.6,22.2,13.8c0,0.5,0.1,1,0.1,1.5  c-4.2,2.8-6.7,6.3-6.7,10.3V73c0,9,12.7,16,29,16s29-7,29-16C73.7,73,73.7,25.6,73.7,25.6z M28.7,12.2c0.7-0.9,1.9-1.8,3.5-2.6  C35.4,7.9,40,7,44.7,7s9.3,0.9,12.5,2.6c1.6,0.8,2.8,1.7,3.5,2.6c0.4,0.6,0.6,1.1,0.6,1.6c0,1.2-1.1,2.5-3,3.7  c-0.3,0.2-0.7,0.4-1.1,0.6c-3.2,1.6-7.8,2.6-12.5,2.6s-9.3-0.9-12.5-2.6c-0.4-0.2-0.7-0.4-1.1-0.6c-1.9-1.2-3-2.5-3-3.7  C28.1,13.3,28.3,12.7,28.7,12.2z M25.2,20.4c3.8,3.8,10.9,6.2,19.5,6.2c8.5,0,15.7-2.4,19.5-6.2c2.3,1.6,3.6,3.4,3.6,5.1v0.6  c-0.3,5.8-10.7,10.6-23.1,10.6c-12.4,0-22.8-4.8-23.1-10.6v-0.5C21.6,23.8,22.9,22,25.2,20.4z M21.6,52c0.3,0.8,0.9,1.6,1.7,2.2  c-0.2,0.5-0.3,1-0.3,1.5c0,0.6,0.2,1.2,0.5,1.8c-0.7,0.3-1.3,0.7-1.9,1.1V52z M29,50.6c0,0.1,0.1,0.3,0.1,0.4  c-1.3,0.3-2.4,0.8-3.3,1.4c-0.2-0.1-0.4-0.2-0.6-0.3c-0.6-0.4-1-0.8-1-1.2c0-0.7,1.7-2,4.8-2.4c-0.1,0.4-0.2,0.8-0.2,1.2  C28.9,50,29,50.3,29,50.6z M62.7,51.8c-1,0.7-2.9,1.4-5.5,1.4c-0.2,0-0.3,0-0.5,0c-0.1-0.2-0.3-0.3-0.4-0.5c1.1-0.4,2-1,2.6-1.6  c0.7-0.7,1.2-1.5,1.3-2.4c2.1,0.5,3.3,1.5,3.3,2.1C63.5,51,63.3,51.4,62.7,51.8z M64.2,56.4c0,0.2-0.2,0.5-0.6,0.9  c0,0,0-0.1-0.1-0.1c-0.5-0.6-1.2-1.2-2-1.7c0.1,0,0.2-0.1,0.3-0.1c0.4-0.1,0.7-0.2,1-0.4C63.8,55.5,64.2,56.1,64.2,56.4z M49.8,60.7  c0.6-0.1,1.2-0.1,1.7-0.3c0.5-0.1,1-0.2,1.5-0.4c0.4-0.1,0.9-0.3,1.3-0.5c0.2-0.1,0.4-0.2,0.5-0.3c0.3-0.2,0.6-0.4,0.8-0.5  c0.2-0.1,0.3-0.3,0.5-0.4c0.4-0.3,0.7-0.7,0.9-1.1c1.9,0.2,3.2,0.8,3.9,1.4c0.1,0.1,0.2,0.2,0.3,0.3c0.2,0.2,0.3,0.4,0.3,0.6  c0,0.1,0,0.2-0.1,0.4c-0.1,0.1-0.2,0.3-0.4,0.4c-0.7,0.6-2,1.2-4,1.5c-0.6,0.1-1.2,0.1-1.9,0.1c-0.4,0-0.8,0-1.2-0.1  c-0.7-0.1-1.3-0.1-1.8-0.3c0,0-0.1,0-0.1,0C51.1,61.3,50.3,61,49.8,60.7z M49.8,64c-0.2,0.1-0.4,0.2-0.6,0.3c-0.1,0-0.1,0-0.2,0.1  c-0.4,0.1-0.8,0.3-1.3,0.4c-0.7,0.2-1.5,0.3-2.5,0.3c-0.2,0-0.4,0-0.6,0c0,0,0,0,0,0c-0.6,0-1.2,0-1.7-0.1c-1.3-0.2-2.3-0.5-3.1-0.8  c-0.5-0.3-0.9-0.5-1.2-0.8c0,0,0,0,0,0c-0.2-0.2-0.4-0.5-0.4-0.7c0-0.1,0-0.2,0.1-0.3c0.1-0.2,0.3-0.4,0.6-0.7  c0.2-0.2,0.5-0.3,0.8-0.5c0.1,0,0.1-0.1,0.2-0.1c0.9-0.4,2.2-0.8,3.9-0.9c0.6,0.2,1.3,0.3,2.1,0.4c0.3,0.9,0.9,1.7,1.8,2.3  C47.9,63,48,63,48,63c0.3,0.2,0.5,0.3,0.8,0.5c0.1,0,0.2,0.1,0.2,0.1C49.4,63.7,49.6,63.9,49.8,64z M57.4,48.3  c-0.2,0.7-1.8,1.9-4.8,2.3c-0.1,0-0.3,0-0.4,0c-0.3,0-0.7,0-1.1,0c-0.1,0-0.1,0-0.2,0c-1.1,0-2.1-0.1-2.9-0.3c0,0-0.1,0-0.1,0  c-0.1,0-0.3-0.1-0.4-0.1c0,0,0,0,0-0.1c0,0,0-0.1,0-0.1c0-0.1,0-0.2,0-0.3c0-1.1-0.5-2.1-1.4-2.9c0.1,0,0.1-0.1,0.2-0.1  c1.1-0.5,2.7-0.9,4.7-0.9c0.7,0,1.4,0.1,2,0.1c2.8,0.4,4.3,1.6,4.3,2.3C57.4,48.2,57.4,48.3,57.4,48.3z M46.7,53  c0.3,0.1,0.7,0.2,1,0.3c0.4,0.1,0.9,0.2,1.4,0.2c0.3,0,0.6,0.1,0.8,0.1c0.3,0,0.7,0,1.1,0c0.2,0,0.3,0,0.5,0c0.1,0,0.2,0,0.3,0  c0.1,0,0.3,0,0.4,0c0.5,0.2,1,0.4,1.3,0.6c0.2,0.1,0.4,0.3,0.5,0.4c0.1,0.1,0.2,0.2,0.3,0.3c0.1,0.2,0.2,0.3,0.2,0.5  c0,0.2-0.1,0.3-0.2,0.5c0,0,0,0-0.1,0.1c-0.4,0.4-1.1,0.9-2.2,1.3c-0.1,0-0.2,0.1-0.4,0.1c-0.1,0-0.2,0.1-0.3,0.1  c-0.1,0-0.1,0-0.2,0c-0.6,0.1-1.4,0.3-2.2,0.3c0,0-0.1,0-0.1,0c-0.2,0-0.5,0-0.7,0c-0.7,0-1.3,0-1.8-0.1c-0.8-0.1-1.4-0.3-2-0.4  c-0.1,0-0.3-0.1-0.4-0.2c0,0-0.1,0-0.1,0c-0.8-0.3-1.4-0.8-1.7-1.1C42,55.9,42,55.8,42,55.7c-0.1-0.1-0.1-0.3-0.1-0.4  c0-0.1,0-0.2,0.1-0.4c0.1-0.2,0.2-0.3,0.4-0.5c0.4-0.1,0.7-0.2,1.1-0.3c0.7-0.3,1.3-0.6,1.8-0.9C45.7,53.1,46.2,53.1,46.7,53z   M44,50.5c-0.2,0.2-0.5,0.4-0.9,0.6c-0.5,0.3-1.2,0.5-2,0.7c-0.4,0.1-0.9,0.2-1.4,0.2c-0.1,0-0.2,0-0.4,0c0,0-0.1,0-0.1,0  c-0.3,0-0.7,0-1.1,0c-0.5,0-1,0-1.5-0.1c-0.2,0-0.4,0-0.6-0.1c-0.9-0.1-1.7-0.4-2.4-0.6c-0.5-0.2-1-0.5-1.3-0.7  c-0.1-0.1-0.2-0.2-0.3-0.3c-0.2-0.2-0.3-0.4-0.3-0.6c0-0.3,0.3-0.7,0.9-1.1c0.9-0.6,2.6-1.2,4.9-1.3c0,0,0.1,0,0.1,0  c0.2,0,0.3,0,0.5,0c1.4,0,2.6,0.2,3.6,0.5c1.5,0.4,2.4,1.1,2.7,1.6c0.1,0.1,0.1,0.2,0.1,0.3C44.5,49.9,44.3,50.2,44,50.5z   M35.3,54.8c0.5,0.1,0.9,0.1,1.4,0.2c0.2,0,0.4,0,0.6,0c0.3,0,0.6,0,0.9,0c0,0,0.1,0,0.1,0c0.1,0,0.2,0,0.3,0  c0.1,0.1,0.3,0.2,0.4,0.3c0,0.3,0.1,0.6,0.1,0.9c0,0,0,0,0,0c0,0.1-0.1,0.2-0.2,0.3c-0.3,0.3-0.8,0.7-1.4,1c0,0,0,0-0.1,0  c-0.3,0.2-0.7,0.3-1.2,0.4c-0.1,0-0.2,0-0.2,0.1c-0.7,0.2-1.4,0.3-2.3,0.3c-0.1,0-0.3,0-0.4,0c-0.1,0-0.2,0-0.3,0c0,0-0.1,0-0.1,0  c0,0,0,0,0,0c-2.3,0-4.1-0.5-5.1-1.1c-0.2-0.1-0.3-0.2-0.5-0.3c-0.2-0.1-0.4-0.3-0.5-0.4c-0.2-0.2-0.3-0.4-0.3-0.6  c0-0.1,0-0.2,0.1-0.2c0.3-0.8,2.1-1.9,5.1-2.1C32.6,54.1,33.9,54.6,35.3,54.8z M24.6,60.1c0.4-0.2,0.8-0.3,1.3-0.4c0,0,0,0,0.1,0  c0.1,0.1,0.3,0.2,0.4,0.3c0.2,0.1,0.4,0.2,0.7,0.3c0,0,0.1,0,0.1,0c0.1,0.1,0.3,0.1,0.4,0.2c1.5,0.6,3.3,0.9,5.2,0.9  c0.8,0,1.6-0.1,2.4-0.2c0.2,0.2,0.3,0.4,0.3,0.6c0,0.1,0,0.2-0.1,0.3c-0.2,0.4-0.7,0.8-1.5,1.2c-0.4,0.2-0.8,0.3-1.3,0.5  c-0.9,0.3-2.1,0.5-3.5,0.5c-3.3,0-5.4-1-6.1-1.9c-0.2-0.2-0.3-0.4-0.3-0.6C22.7,61.3,23.4,60.6,24.6,60.1z M22.9,72.9  c0-0.6,1.4-1.8,3.9-2.2c0,0.1,0,0.3,0,0.4c0,0.1,0,0.2,0,0.3c0.1,1.6,1.4,3,3.3,3.9c0,0,0.1,0,0.1,0c-0.3,0-0.6,0-1,0  C25.2,75.3,22.9,73.7,22.9,72.9z M29.8,71c0-0.2,0.1-0.3,0.2-0.5c0,0,0,0,0.1-0.1c0.1-0.1,0.1-0.1,0.2-0.2c0.4-0.4,1.1-0.8,2-1.1  c0.5,0.5,1.2,1,2,1.4c0.1,0.1,0.2,0.1,0.3,0.2c0.6,0.3,1.2,0.5,1.9,0.7c0.2,0.1,0.5,0.1,0.7,0.2c0.4,0.1,0.8,0.1,1.2,0.2  c0.5,0.1,1.1,0.1,1.7,0.1c-0.5,0.4-0.8,0.8-1.1,1.3c-0.1,0-0.3,0.1-0.4,0.1c-0.3,0-0.5,0.1-0.8,0.1c-0.5,0.1-1,0.1-1.6,0.1  c-0.3,0-0.5,0-0.8,0c-0.5,0-1-0.1-1.5-0.2C31.2,72.8,29.8,71.7,29.8,71z M36.4,76.4c0.8,0,1.6-0.1,2.4-0.2c0.4,1,1.2,1.9,2.4,2.6  c-3.1-0.1-5.1-1.1-5.7-1.9C35.8,76.8,36.1,76.6,36.4,76.4z M40.6,69C40.5,69,40.5,69,40.6,69c-0.6,0-1.1,0-1.6-0.1  c-0.4,0-0.8-0.1-1.2-0.2c-1.2-0.3-2.1-0.7-2.7-1.1c-0.5-0.4-0.8-0.8-0.8-1.1c0-0.1,0-0.2,0.1-0.3c0.1,0,0.1-0.1,0.2-0.1  c0.4-0.1,0.7-0.3,1-0.5c0.3-0.2,0.7-0.4,0.9-0.6c0.2,0.2,0.4,0.4,0.6,0.6c0.1,0,0.1,0.1,0.2,0.1c0.4,0.3,0.9,0.6,1.4,0.9  c1,0.5,2.1,0.9,3.4,1.1c0.4,0.1,0.7,0.1,1.1,0.1c0.2,0,0.5,0,0.7,0.1c0.3,0,0.6,0,0.9,0c0.2,0,0.5,0,0.7,0c-0.3,0.2-0.7,0.3-1.1,0.5  c-0.4,0.1-1,0.3-1.5,0.4C42.1,68.9,41.4,69,40.6,69z M42.2,74c0.5-0.4,1.3-0.8,2.4-1.1c0.1,0,0.1,0.1,0.2,0.1  c0.1,0.1,0.3,0.2,0.4,0.3c0.8,0.5,1.7,0.9,2.7,1.1c0.8,0.2,1.6,0.4,2.5,0.4c0.5,0,1,0.1,1.5,0.1c0.7,0,1.3,0,1.9-0.1  c0.1,0,0.1,0,0.2,0c0,0,0,0.1,0,0.1c0,0,0,0,0,0.1c0,0.6-1.1,1.6-3.2,2.1c-0.1,0-0.1,0-0.2,0c-0.8,0.2-1.8,0.3-3,0.3  c-0.2,0-0.4,0-0.6,0c-0.6,0-1.1-0.1-1.6-0.2c-2.1-0.3-3.5-1.2-4-1.8c-0.1-0.2-0.2-0.3-0.2-0.5C41.4,74.7,41.7,74.3,42.2,74z M52,72  c-1,0-1.8-0.1-2.5-0.2c-0.8-0.2-1.5-0.4-2.1-0.6c-0.3-0.1-0.6-0.3-0.8-0.5c0.7-0.3,1.2-0.7,1.7-1.1c0.1-0.1,0.1-0.1,0.2-0.2  c0.7-0.6,1.1-1.3,1.3-2.1c0.4-0.1,0.8-0.1,1.3-0.1c0.3,0,0.6,0,1,0c0.6,0,1.2,0,1.7,0.1c0.3,0.1,0.7,0.2,1,0.2  c0.3,0.1,0.6,0.1,0.9,0.2c1.8,0.5,2.7,1.4,2.7,1.9c0,0.1,0,0.2-0.1,0.3c0,0.1-0.1,0.1-0.1,0.2c-0.4,0.5-1.4,1.2-2.9,1.5  c-0.3,0.1-0.6,0.1-1,0.2C53.5,71.9,52.8,72,52,72z M57,74.2c0.6-0.2,1.2-0.5,1.7-0.8c1.1,0.5,1.7,1.1,1.7,1.6c0,0.1,0,0.2-0.1,0.4  c-0.4,0.7-1.8,1.5-4,1.9c0.4-0.6,0.7-1.2,0.8-1.8c0-0.1,0-0.3,0-0.4C57.1,74.7,57,74.4,57,74.2z M60.2,64.7  c-0.7,0.1-1.4,0.2-2.3,0.2c-0.5,0-1,0-1.4-0.1c1.2-0.1,2.2-0.3,3.2-0.6c1.8-0.6,3.2-1.5,4-2.6c0.4,0.3,0.6,0.6,0.6,0.9  C64.3,63.1,62.9,64.2,60.2,64.7z M61.1,68.6c0.2-0.2,0.5-0.3,0.7-0.5c1.9,0.5,2.8,1.4,2.8,2c0,0.5-0.9,1.4-2.7,1.9  c-0.3-0.3-0.7-0.5-1-0.8c0.3-0.5,0.4-1.1,0.4-1.7C61.3,69.2,61.2,68.9,61.1,68.6z M67.2,62.9c0-0.1,0-0.3,0-0.4c0-1.1-0.6-2.2-1.5-3  c0.9-0.8,1.4-1.8,1.4-2.9c0-1.2-0.6-2.3-1.7-3.2c0.6-0.7,1-1.6,1-2.5c0-2.7-3.1-4.8-7.4-5.3c-1.6-1.6-4.5-2.7-8.1-2.7  c-3.3,0-6.1,0.9-7.7,2.3c-1.4-0.5-3.2-0.8-5.1-0.8c-2.4,0-4.5,0.5-6.1,1.2c-0.5,0-1-0.1-1.5-0.1c-4.6,0-8.2,1.8-9.1,4.2V32.3  c4.3,4.4,12.9,7.3,23.1,7.3c10.2,0,18.8-2.9,23.1-7.3v30.9C67.6,63.1,67.4,63,67.2,62.9z M67.8,73.1c-0.1,4.7-9.6,10-23.1,10  c-9.5,0-17-2.6-20.6-5.7c1.5,0.6,3.3,0.9,5.2,0.9c1.2,0,2.3-0.1,3.3-0.3c1.1,2.3,4.6,3.9,8.9,3.9c2.5,0,4.8-0.5,6.4-1.4  c1.1,0,2-0.1,3-0.3c1,0.2,2,0.3,3.1,0.3c5.3,0,9.3-2.3,9.3-5.4c0-0.1,0-0.2,0-0.3c2.1-0.7,3.5-1.9,4-3.4c0.3,0.6,0.4,1.1,0.4,1.7  C67.8,72.9,67.8,73,67.8,73.1C67.8,73,67.8,73.1,67.8,73.1z"></path></svg>